<svg width="28" height="23" viewBox="0 0 28 23" fill="none" xmlns="http://www.w3.org/2000/svg">
<ellipse cx="13.8215" cy="11.7257" rx="13.3699" ry="11.274" fill="#FFB400"/>
<g clip-path="url(#clip0_2_460)">
<path d="M13.822 6.24561C15.5878 6.24561 15.8082 6.25109 16.501 6.27849C17.1931 6.30589 17.6643 6.39741 18.079 6.53333C18.5079 6.67253 18.8693 6.86106 19.2307 7.16522C19.5611 7.43918 19.8169 7.77058 19.98 8.13635C20.1406 8.48545 20.2497 8.88333 20.2822 9.467C20.3128 10.0512 20.3212 10.237 20.3212 11.726C20.3212 13.2151 20.3147 13.4008 20.2822 13.9851C20.2497 14.5687 20.1406 14.9661 19.98 15.3157C19.8173 15.6817 19.5615 16.0132 19.2307 16.2868C18.9057 16.5654 18.5127 16.781 18.079 16.9187C17.665 17.0541 17.1931 17.1462 16.501 17.1736C15.8082 17.1993 15.5878 17.2065 13.822 17.2065C12.0561 17.2065 11.8358 17.201 11.143 17.1736C10.4508 17.1462 9.97964 17.0541 9.56499 16.9187C9.13105 16.7814 8.73798 16.5658 8.41333 16.2868C8.08278 16.0129 7.82705 15.6815 7.66396 15.3157C7.50278 14.9666 7.39425 14.5687 7.36175 13.9851C7.3312 13.4008 7.32275 13.2151 7.32275 11.726C7.32275 10.237 7.32925 10.0512 7.36175 9.467C7.39425 8.88278 7.50278 8.486 7.66396 8.13635C7.8266 7.77036 8.08239 7.43887 8.41333 7.16522C8.73807 6.88639 9.13112 6.67074 9.56499 6.53333C9.97964 6.39741 10.4502 6.30589 11.143 6.27849C11.8358 6.25273 12.0561 6.24561 13.822 6.24561ZM13.822 8.98582C12.9601 8.98582 12.1336 9.27452 11.5242 9.78841C10.9147 10.3023 10.5724 10.9993 10.5724 11.726C10.5724 12.4528 10.9147 13.1498 11.5242 13.6636C12.1336 14.1775 12.9601 14.4662 13.822 14.4662C14.6838 14.4662 15.5104 14.1775 16.1198 13.6636C16.7292 13.1498 17.0716 12.4528 17.0716 11.726C17.0716 10.9993 16.7292 10.3023 16.1198 9.78841C15.5104 9.27452 14.6838 8.98582 13.822 8.98582V8.98582ZM18.0465 8.84881C18.0465 8.66712 17.9609 8.49287 17.8086 8.3644C17.6562 8.23593 17.4496 8.16375 17.2341 8.16375C17.0186 8.16375 16.812 8.23593 16.6596 8.3644C16.5073 8.49287 16.4217 8.66712 16.4217 8.84881C16.4217 9.03049 16.5073 9.20474 16.6596 9.33321C16.812 9.46168 17.0186 9.53386 17.2341 9.53386C17.4496 9.53386 17.6562 9.46168 17.8086 9.33321C17.9609 9.20474 18.0465 9.03049 18.0465 8.84881ZM13.822 10.0819C14.3391 10.0819 14.835 10.2551 15.2007 10.5635C15.5663 10.8718 15.7718 11.29 15.7718 11.726C15.7718 12.1621 15.5663 12.5803 15.2007 12.8886C14.835 13.1969 14.3391 13.3702 13.822 13.3702C13.3049 13.3702 12.8089 13.1969 12.4433 12.8886C12.0776 12.5803 11.8722 12.1621 11.8722 11.726C11.8722 11.29 12.0776 10.8718 12.4433 10.5635C12.8089 10.2551 13.3049 10.0819 13.822 10.0819V10.0819Z" fill="#2B2B2B"/>
</g>
<defs>
<clipPath id="clip0_2_460">
<rect width="15.5982" height="13.153" fill="white" transform="translate(6.02295 5.14941)"/>
</clipPath>
</defs>
</svg>
