<svg width="28" height="23" viewBox="0 0 28 23" fill="none" xmlns="http://www.w3.org/2000/svg">
<ellipse cx="14.2742" cy="11.7257" rx="13.3699" ry="11.274" fill="#FFB400"/>
<g clip-path="url(#clip0_2_464)">
<path d="M20.8787 8.24914C20.3826 8.43421 19.8564 8.55576 19.3176 8.60976C19.8855 8.32337 20.3105 7.87265 20.5135 7.34159C19.9806 7.60903 19.3963 7.79646 18.7873 7.89785C18.3782 7.52879 17.836 7.28402 17.245 7.20161C16.6539 7.11919 16.0472 7.20375 15.519 7.44213C14.9908 7.6805 14.5708 8.05935 14.3243 8.51976C14.0778 8.98018 14.0186 9.49637 14.1559 9.98808C13.0752 9.94241 12.0179 9.70558 11.0527 9.29298C10.0876 8.88038 9.23609 8.30123 8.55359 7.59314C8.31201 7.94304 8.18505 8.34079 8.18573 8.74567C8.18573 9.54033 8.66538 10.2424 9.39459 10.6534C8.96305 10.6419 8.541 10.5437 8.16364 10.3668V10.3953C8.16377 10.9245 8.38095 11.4374 8.77836 11.8471C9.17578 12.2567 9.72897 12.5378 10.3441 12.6428C9.94353 12.7343 9.52348 12.7478 9.11577 12.6823C9.28922 13.1378 9.62727 13.5362 10.0826 13.8217C10.5379 14.1072 11.0877 14.2654 11.655 14.2743C11.0912 14.6477 10.4456 14.9237 9.75522 15.0866C9.06481 15.2495 8.3431 15.296 7.63135 15.2235C8.87381 15.8973 10.3201 16.255 11.7974 16.2538C16.7972 16.2538 19.5315 12.7612 19.5315 9.73215C19.5315 9.6335 19.5282 9.53376 19.523 9.4362C20.0552 9.11185 20.5145 8.71006 20.8794 8.24969L20.8787 8.24914Z" fill="#2B2B2B"/>
</g>
<defs>
<clipPath id="clip0_2_464">
<rect width="15.5982" height="13.153" fill="white" transform="translate(6.4751 5.14941)"/>
</clipPath>
</defs>
</svg>
