<svg width="28" height="23" viewBox="0 0 28 23" fill="none" xmlns="http://www.w3.org/2000/svg">
<ellipse cx="13.7258" cy="11.7257" rx="13.3699" ry="11.274" fill="#FFB400"/>
<g clip-path="url(#clip0_2_468)">
<path d="M10.4371 7.8896C10.4369 8.1803 10.2998 8.45904 10.0559 8.66449C9.81203 8.86994 9.48134 8.98528 9.1366 8.98514C8.79186 8.98499 8.46131 8.86937 8.21766 8.66371C7.97401 8.45806 7.83723 8.17921 7.8374 7.88851C7.83757 7.59781 7.97469 7.31907 8.21858 7.11362C8.46247 6.90816 8.79316 6.79282 9.1379 6.79297C9.48264 6.79311 9.81319 6.90873 10.0568 7.11439C10.3005 7.32005 10.4373 7.5989 10.4371 7.8896V7.8896ZM10.4761 9.79679H7.8764V16.6583H10.4761V9.79679ZM14.5836 9.79679H11.9969V16.6583H14.5576V13.0576C14.5576 11.0518 17.6578 10.8655 17.6578 13.0576V16.6583H20.225V12.3123C20.225 8.93088 15.6365 9.05693 14.5576 10.7175L14.5836 9.79679V9.79679Z" fill="#2B2B2B"/>
</g>
<defs>
<clipPath id="clip0_2_468">
<rect width="15.5982" height="13.153" fill="white" transform="translate(5.92676 5.14941)"/>
</clipPath>
</defs>
</svg>
