<svg width="28" height="23" viewBox="0 0 28 23" fill="none" xmlns="http://www.w3.org/2000/svg">
<ellipse cx="14.1785" cy="11.7257" rx="13.3699" ry="11.274" fill="#FFB400"/>
<g clip-path="url(#clip0_2_472)">
<path d="M20.3802 8.71081C20.6772 9.68742 20.6772 11.7261 20.6772 11.7261C20.6772 11.7261 20.6772 13.7649 20.3802 14.7415C20.2151 15.2813 19.7322 15.706 19.1206 15.8496C18.0099 16.1105 14.1779 16.1105 14.1779 16.1105C14.1779 16.1105 10.3479 16.1105 9.23528 15.8496C8.6211 15.7038 8.13886 15.2796 7.97573 14.7415C7.67871 13.7649 7.67871 11.7261 7.67871 11.7261C7.67871 11.7261 7.67871 9.68742 7.97573 8.71081C8.14081 8.17098 8.6237 7.74625 9.23528 7.60266C10.3479 7.3418 14.1779 7.3418 14.1779 7.3418C14.1779 7.3418 18.0099 7.3418 19.1206 7.60266C19.7348 7.74844 20.217 8.17263 20.3802 8.71081V8.71081ZM12.8781 13.6443L16.7776 11.7261L12.8781 9.80799V13.6443Z" fill="#2B2B2B"/>
</g>
<defs>
<clipPath id="clip0_2_472">
<rect width="15.5982" height="13.153" fill="white" transform="translate(6.37891 5.14941)"/>
</clipPath>
</defs>
</svg>
