<svg width="35" height="31" viewBox="0 0 35 31" fill="none" xmlns="http://www.w3.org/2000/svg">
<g filter="url(#filter0_d_2_476)">
<ellipse cx="17.6301" cy="11.7257" rx="13.3699" ry="11.274" fill="#FFB400"/>
<g clip-path="url(#clip0_2_476)">
<path d="M22.8223 11.4915C22.7691 10.6288 22.4132 9.79889 21.8 9.10693C21.6132 9.27662 21.4134 9.43589 21.2021 9.58373C20.5528 10.0385 19.8272 10.4097 19.0489 10.6853C19.1574 10.8771 19.2569 11.0629 19.3446 11.2383V11.2399C19.3694 11.2889 19.3932 11.3382 19.4161 11.3879C20.4001 11.2947 21.4374 11.3287 22.4428 11.4432C22.5767 11.4586 22.7028 11.475 22.8223 11.4915V11.4915ZM16.7228 7.40855C17.3562 8.16111 17.9402 8.94232 18.4724 9.74869C19.2673 9.48454 19.9243 9.15133 20.4534 8.7803C20.637 8.65268 20.8099 8.51442 20.9707 8.36653C20.0355 7.70324 18.8522 7.34023 17.6301 7.34169C17.326 7.34151 17.0224 7.3637 16.7228 7.408V7.40855ZM12.5951 10.6283C13.0379 10.6189 13.4801 10.5964 13.921 10.5609C14.9866 10.4805 16.0432 10.3299 17.0809 10.1104C16.5386 9.31585 15.953 8.54284 15.3261 7.79382C14.6565 8.07354 14.0661 8.47143 13.5949 8.96049C13.1237 9.44955 12.7827 10.0183 12.5951 10.6283ZM13.5895 14.4854C13.8417 14.1747 14.1732 13.825 14.6132 13.4447C15.5581 12.6281 16.6734 11.9924 17.9642 11.6416L18.0045 11.6318C17.8972 11.4323 17.7965 11.2542 17.6951 11.0865C16.5018 11.3797 15.2449 11.5627 13.9925 11.6575C13.3815 11.7041 12.8337 11.7244 12.4307 11.7277C12.4296 12.732 12.8391 13.706 13.5902 14.4854H13.5895ZM19.5831 15.7898C19.3325 14.724 18.9777 13.6775 18.5224 12.661C17.2213 13.0594 16.1847 13.642 15.3833 14.3369C15.0599 14.6122 14.7729 14.9163 14.5274 15.2439C15.4235 15.8077 16.512 16.1117 17.6301 16.1104C18.2995 16.1112 18.9627 16.0027 19.5831 15.7909V15.7898ZM20.8004 15.2006C21.8151 14.5428 22.5064 13.5925 22.7417 12.5317C22.5208 12.4851 22.2407 12.4385 21.9326 12.4023C21.2477 12.3191 20.5527 12.3131 19.8658 12.3842C20.2526 13.3043 20.5648 14.2454 20.8004 15.2012V15.2006ZM17.6301 17.2065C14.0406 17.2065 11.1309 14.7529 11.1309 11.726C11.1309 8.69919 14.0406 6.24561 17.6301 6.24561C21.2196 6.24561 24.1293 8.69919 24.1293 11.726C24.1293 14.7529 21.2196 17.2065 17.6301 17.2065Z" fill="#2B2B2B"/>
</g>
</g>
<defs>
<filter id="filter0_d_2_476" x="0.260254" y="0.45166" width="34.7397" height="30.5479" filterUnits="userSpaceOnUse" color-interpolation-filters="sRGB">
<feFlood flood-opacity="0" result="BackgroundImageFix"/>
<feColorMatrix in="SourceAlpha" type="matrix" values="0 0 0 0 0 0 0 0 0 0 0 0 0 0 0 0 0 0 127 0" result="hardAlpha"/>
<feOffset dy="4"/>
<feGaussianBlur stdDeviation="2"/>
<feComposite in2="hardAlpha" operator="out"/>
<feColorMatrix type="matrix" values="0 0 0 0 0 0 0 0 0 0 0 0 0 0 0 0 0 0 0.25 0"/>
<feBlend mode="normal" in2="BackgroundImageFix" result="effect1_dropShadow_2_476"/>
<feBlend mode="normal" in="SourceGraphic" in2="effect1_dropShadow_2_476" result="shape"/>
</filter>
<clipPath id="clip0_2_476">
<rect width="15.5982" height="13.153" fill="white" transform="translate(9.83105 5.14941)"/>
</clipPath>
</defs>
</svg>
